<svg xmlns="http://www.w3.org/2000/svg" width="40" height="35" viewBox="0 0 40 35" fill="none">
<path fill-rule="evenodd" clip-rule="evenodd" d="M0 6V4.21053C0 1.88512 1.88512 0 4.21053 0H9.2549C10.5595 0 11.7904 0.604751 12.5877 1.63741L14.6917 4.36259C15.489 5.39525 16.7199 6 18.0245 6H35.7895C38.1149 6 40 7.88512 40 10.2105V30.7895C40 33.1149 38.1149 35 35.7895 35H4.21052C1.88512 35 0 33.1149 0 30.7895V8V6ZM15.0234 10.9152C14.5932 10.6677 14.0563 10.9788 14.0572 11.4752L14.0605 13.5114C13.1751 13.8895 12.3595 14.433 11.6613 15.1227C10.2014 16.5649 9.37408 18.5279 9.36147 20.58C9.34887 22.6322 10.152 24.6052 11.5941 26.0652C12.6917 27.1763 14.091 27.921 15.6016 28.219C16.3923 28.375 17.0555 27.7117 17.0604 26.9058C17.0654 26.0998 16.4014 25.4634 15.6336 25.2183C14.8982 24.9836 14.2231 24.5734 13.6706 24.0141C12.7724 23.1048 12.2722 21.876 12.2801 20.598C12.2879 19.3199 12.8032 18.0973 13.7124 17.1992C13.8255 17.0875 13.9436 16.9819 14.066 16.8827L14.0683 18.3158C14.0692 18.8122 14.607 19.1215 15.0365 18.8726L20.955 15.4426C21.3845 15.1937 21.3835 14.5733 20.9532 14.3258L15.0234 10.9152ZM28.1591 29.5021C28.193 29.9973 27.678 30.3435 27.2322 30.1252L21.0886 27.1168C20.6429 26.8985 20.6005 26.2795 21.0125 26.0026L26.6896 22.1862C27.1016 21.9093 27.6588 22.1822 27.6927 22.6774L27.7904 24.1073C27.906 24.0001 28.0168 23.8869 28.1222 23.7679C28.9697 22.8112 29.4024 21.5571 29.3252 20.2813C29.2479 19.0056 28.6671 17.8128 27.7104 16.9653C27.1219 16.444 26.4209 16.0797 25.6716 15.8944C24.8892 15.7009 24.1843 15.1101 24.1356 14.3057C24.0869 13.5012 24.7045 12.7952 25.5038 12.8983C27.0309 13.095 28.4767 13.7449 29.6457 14.7805C31.1819 16.1413 32.1145 18.0565 32.2385 20.1049C32.3625 22.1534 31.6677 24.1671 30.307 25.7033C29.6562 26.4379 28.8786 27.0345 28.0203 27.4707L28.1591 29.5021Z" fill="url(#paint0_linear_224_2561)"/>
<defs>
<linearGradient id="paint0_linear_224_2561" x1="1.35562" y1="1.42365" x2="39.3991" y2="33.6637" gradientUnits="userSpaceOnUse">
<stop stop-color="#8031FD"/>
<stop offset="1" stop-color="#8D00D4"/>
</linearGradient>
</defs>
</svg>